<svg width="74" height="89" viewBox="0 0 74 89" fill="none" xmlns="http://www.w3.org/2000/svg">
<path d="M23.8009 34.1964C21.0782 38.0861 19.0273 41.4512 17.9802 43.9677C17.1623 45.9336 17.3182 48.262 17.4479 50.7775C17.6571 54.8371 19.212 56.4538 20.4879 57.7975C22.4166 59.8286 25.0346 59.7973 27.9135 60.6803C29.8875 61.2858 32.0418 61.306 33.6448 61.2736C35.1056 61.244 37.2732 58.8347 40.3456 55.8595C42.665 53.6136 44.8757 51.8864 46.7714 49.9593C49.6293 47.0539 49.7947 44.4234 50.4822 41.9993C51.4251 38.6748 51.3034 36.8878 50.3919 34.3379C49.525 31.9129 48.1642 31.513 46.2036 30.5985C44.7177 29.9055 42.9269 29.8746 41.2935 29.7116C37.9641 29.3792 35.4738 29.4817 33.303 29.6448C31.2712 29.7974 29.8358 30.2636 28.552 30.5288C27.6869 30.7075 26.559 31.1162 25.6043 31.6731C25.1112 32.4265 24.7203 33.2103 24.0327 33.834C23.8677 33.998 23.7381 34.1925 23.8009 34.3929" stroke="black" stroke-width="2" stroke-linecap="round"/>
<path d="M26.3547 38.5183L26.5512 38.3218" stroke="black" stroke-width="2" stroke-linecap="round"/>
<path d="M43.0526 36.3573H42.8562" stroke="black" stroke-width="2" stroke-linecap="round"/>
<path d="M36.7664 34.9822C36.2458 35.5696 34.9394 36.6127 33.5309 38.5752C31.7683 41.0311 30.7453 42.3136 30.3838 42.7389C30.6058 42.9697 31.7806 43.0365 33.2853 43.0041C33.8825 42.9717 34.1418 42.9069 34.409 42.8401" stroke="black" stroke-width="2" stroke-linecap="round"/>
<path d="M22.8187 51.4837C23.7263 51.4837 25.3607 51.4189 27.2908 51.2882C28.054 51.2224 28.3781 51.1576 29.2906 51.1242C30.2031 51.0908 31.6941 51.0908 33.2303 51.0908" stroke="black" stroke-width="2" stroke-linecap="round"/>
<path d="M57.9825 14.9447C57.7232 12.222 58.3675 9.84698 59.7407 8.24398C60.6039 7.23629 61.385 7.02208 61.8751 6.92386C62.2934 6.84003 62.6953 7.02012 63.1196 7.37863C64.9833 8.95332 65.251 12.4518 65.1214 13.3663C64.9819 14.3502 63.3632 16.2393 61.2396 19.3088C60.2181 20.8872 59.3105 22.5079 58.8429 23.8938C58.3754 25.2798 58.3754 26.3818 58.3754 27.5173" stroke="black" stroke-width="2" stroke-linecap="round"/>
<path d="M59.3576 32.0355H59.1612" stroke="black" stroke-width="2" stroke-linecap="round"/>
<path d="M34.2126 3.94378C34.7351 3.35641 35.6466 2.31328 36.7624 1.62081C38.0543 0.81907 40.3613 1.64929 41.2168 2.36926C41.3988 2.5224 41.4143 2.76117 41.3504 3.02343C40.9896 4.50563 39.0019 5.77073 37.395 7.37372C36.0454 8.72004 35.458 10.0965 35.2616 10.6838C35.1948 11.0119 35.1948 11.4009 35.3245 11.8281C35.4541 12.2554 35.7134 12.7092 35.9806 13.1767" stroke="black" stroke-width="2" stroke-linecap="round"/>
<path d="M39.3202 18.2843V18.6772" stroke="black" stroke-width="2" stroke-linecap="round"/>
<path d="M5.92436 14.3554C5.4686 13.6423 4.81247 11.5462 5.10321 10.0395C5.58109 7.56293 9.58218 6.8944 11.7117 6.36792C12.5723 6.15515 13.1909 6.36596 13.5504 6.56142C14.6487 7.15859 15.1534 9.95502 15.8105 13.7523C16.1559 15.7482 14.0494 17.1646 12.9345 18.4759C12.6035 20.2409 12.7332 22.1445 12.962 22.7653C13.0612 23.0619 13.1261 23.3212 13.5857 23.9813" stroke="black" stroke-width="2" stroke-linecap="round"/>
<path d="M17.1218 29.0889H16.9253" stroke="black" stroke-width="2" stroke-linecap="round"/>
<path d="M60.8352 46.0438C61.0945 45.5252 62.6543 43.6373 65.0745 41.1169C66.3418 39.7972 68.2884 39.954 70.2184 40.0836C71.3706 40.161 71.8342 40.999 72.1289 41.554C72.4233 42.1085 72.1642 42.8319 71.9364 43.6147C71.6221 44.6944 69.8855 47.138 67.3366 50.343C65.4881 52.6673 63.8506 53.5696 62.8409 54.7434C61.1181 56.4358 59.7901 57.9563 59.3648 58.8393C59.1988 59.2037 59.134 59.3982 59.0672 59.5985" stroke="black" stroke-width="2" stroke-linecap="round"/>
<path d="M58.0672 63.1964V63" stroke="black" stroke-width="2" stroke-linecap="round"/>
<path d="M10.0672 44.1964V44" stroke="black" stroke-width="2" stroke-linecap="round"/>
<path d="M47.0672 88.5C47.0672 85.2826 46.6792 82.0967 45.9254 79.1243C45.1716 76.1518 44.0667 73.4509 42.6738 71.1759C41.2809 68.9008 39.6273 67.0962 37.8074 65.865C35.9876 64.6337 34.037 64 32.0672 64C30.0974 64 28.1468 64.6337 26.3269 65.865C24.507 67.0962 22.8535 68.9008 21.4606 71.1759C20.0677 73.4509 18.9628 76.1518 18.209 79.1243C17.4552 82.0967 17.0672 85.2826 17.0672 88.5L32.0672 88.5H47.0672Z" fill="black"/>
<path d="M1.19359 28.7392C1.03886 27.6592 1.14098 26.7308 1.60362 26.0345C2.01488 25.4156 2.73779 25.0783 3.45728 24.9236C4.36184 24.729 5.11134 24.922 5.70164 25.1781C6.71265 25.6167 7.43229 26.3641 7.76728 26.8786C8.29098 27.6829 7.79745 29.1415 6.99905 31.5676C6.58288 32.8323 5.99021 35.015 6.45208 37.9363C6.60758 38.4841 6.76076 38.7904 6.96733 39.127C7.17389 39.4635 7.42919 39.8209 7.69223 40.3439" stroke="black" stroke-width="2" stroke-linecap="round"/>
</svg>
